<?xml version="1.0" encoding="UTF-8" standalone="no"?>
<svg
   xmlns:dc="http://purl.org/dc/elements/1.1/"
   xmlns:cc="http://creativecommons.org/ns#"
   xmlns:rdf="http://www.w3.org/1999/02/22-rdf-syntax-ns#"
   xmlns:svg="http://www.w3.org/2000/svg"
   xmlns="http://www.w3.org/2000/svg"
   xmlns:sodipodi="http://sodipodi.sourceforge.net/DTD/sodipodi-0.dtd"
   xmlns:inkscape="http://www.inkscape.org/namespaces/inkscape"
   version="1.1"
   id="Layer_1"
   x="0px"
   y="0px"
   viewBox="0 0 876.3 594.3"
   style="enable-background:new 0 0 876.3 594.3;"
   xml:space="preserve"
   sodipodi:docname="pix4d.svg"
   inkscape:version="1.0.2 (e86c870879, 2021-01-15)"><metadata
   id="metadata23"><rdf:RDF><cc:Work
       rdf:about=""><dc:format>image/svg+xml</dc:format><dc:type
         rdf:resource="http://purl.org/dc/dcmitype/StillImage" /><dc:title></dc:title></cc:Work></rdf:RDF></metadata><defs
   id="defs21">
	
	
	
	
	
	
</defs><sodipodi:namedview
   pagecolor="#ffffff"
   bordercolor="#666666"
   borderopacity="1"
   objecttolerance="10"
   gridtolerance="10"
   guidetolerance="10"
   inkscape:pageopacity="0"
   inkscape:pageshadow="2"
   inkscape:window-width="1780"
   inkscape:window-height="1046"
   id="namedview19"
   showgrid="false"
   inkscape:zoom="0.72354031"
   inkscape:cx="367.08901"
   inkscape:cy="399.71426"
   inkscape:window-x="129"
   inkscape:window-y="-11"
   inkscape:window-maximized="1"
   inkscape:current-layer="Layer_1" />
<style
   type="text/css"
   id="style2">
	.st0{fill:#FFFFFF;}
</style>
<path
   class="st0"
   d="m 493,250.8 -39.2,68.1 h 175 c 17.2,0 27.9,-18.6 19.2,-33.4 L 540.6,99.3 520.7,65.1 c -8.5,-14.8 -29.9,-14.8 -38.6,0 l -19.7,34.2 -87.3,151.3 -47.9,-83.2 h 56.4 l 39.2,-68.1 h -175 c -17.2,0 -27.9,18.6 -19.2,33.4 l 107.3,186 -0.2,0.2 h 0.2 v -0.2 0.2 l 19.7,34.2 c 8.5,14.8 29.9,14.8 38.6,0 l 19.7,-34.2 87.3,-151.3 48.1,83.2 z"
   id="path4"
   style="fill:#1de05e;fill-opacity:1" /><path
   class="st0"
   d="m 142.1,481.9 c 0,32.9 -22.4,54.5 -56.6,54.5 H 38.7 v 47.4 H 12.6 V 427.3 h 73 c 34.2,0 56.5,21.8 56.5,54.6 z m -26,0 c 0,-18.6 -12.8,-30.6 -32,-30.6 H 38.6 v 61.5 h 45.6 c 19.2,0 31.9,-12.2 31.9,-30.9 z"
   id="path6"
   style="fill:#084464;fill-opacity:1" /><path
   class="st0"
   d="m 216.5,427.3 h 26.2 v 156.5 h -26.2 z"
   id="path8"
   style="fill:#084464;fill-opacity:1" /><path
   class="st0"
   d="m 457.2,583.8 h -31.5 l -23.3,-33.7 -17.7,-26.6 -18,26.6 -23.3,33.7 h -31.1 l 55.2,-79.6 -53,-76.9 h 30.9 l 21.4,31.5 17.8,27.1 18.1,-27.1 21.4,-31.5 h 30.6 l -53.3,76.9 z"
   id="path10"
   style="fill:#084464;fill-opacity:1" /><path
   class="st0"
   d="m 646.7,553.3 h -18.3 v 30.6 h -26.2 v -30.6 h -86.4 l -3.2,-24.1 85.6,-101.8 h 29.9 v 101.8 h 18.3 v 24.1 z M 542,529.3 h 60.2 v -70.9 z"
   id="path12"
   style="fill:#084464;fill-opacity:1" /><path
   class="st0"
   d="m 863.7,505.7 c 0,47 -31.7,78.3 -79,78.3 H 724.8 V 427.5 h 59.9 c 47.3,-0.2 79,31.2 79,78.2 z m -26.3,0 c 0,-32.2 -21.4,-54.1 -52.5,-54.1 h -33.7 v 108.3 h 33.6 c 31.3,-0.2 52.6,-22.1 52.6,-54.2 z"
   id="path14"
   style="fill:#084464;fill-opacity:1" />
</svg>
